<?xml version="1.0" encoding="utf-8"?>
<!-- Generator: Adobe Illustrator 23.0.1, SVG Export Plug-In . SVG Version: 6.00 Build 0)  -->
<svg version="1.1" id="Layer_1" xmlns="http://www.w3.org/2000/svg" xmlns:xlink="http://www.w3.org/1999/xlink" x="0px" y="0px"
	 viewBox="0 0 735 525" style="enable-background:new 0 0 735 525;" xml:space="preserve">
<style type="text/css">
	.st0{fill:none;stroke:#1A25A6;stroke-width:1.0507;stroke-miterlimit:10;}
	.st1{fill:#1A25A6;}
</style>
<circle class="st0" cx="565.175" cy="108.202" r="31.5"/>
<circle class="st0" cx="248.723" cy="108.202" r="31.5"/>
<circle class="st0" cx="407.288" cy="108.202" r="31.5"/>
<circle class="st0" cx="486.484" cy="108.202" r="22.5"/>
<circle class="st0" cx="328.036" cy="108.202" r="22.5"/>
<path class="st0" d="M156.645,126.86c-5.985-4.043-9.92-10.891-9.92-18.657c0-12.426,10.074-22.5,22.5-22.5s22.5,10.074,22.5,22.5
	s-10.074,22.5-22.5,22.5C164.565,130.702,160.236,129.286,156.645,126.86"/>
<circle class="st0" cx="124.834" cy="207.506" r="42.834"/>
<circle class="st0" cx="512.112" cy="207.506" r="42.834"/>
<circle class="st0" cx="318.058" cy="207.506" r="42.834"/>
<circle class="st0" cx="221.136" cy="207.506" r="30.595"/>
<circle class="st0" cx="415.048" cy="207.506" r="30.595"/>
<circle class="st0" cx="609.405" cy="207.506" r="30.595"/>
<circle class="st0" cx="610.166" cy="305.861" r="42.834"/>
<circle class="st0" cx="222.887" cy="305.861" r="42.834"/>
<circle class="st0" cx="416.942" cy="305.861" r="42.834"/>
<circle class="st0" cx="513.864" cy="305.861" r="30.595"/>
<circle class="st0" cx="319.952" cy="305.861" r="30.595"/>
<circle class="st0" cx="125.595" cy="305.861" r="30.595"/>
<circle class="st0" cx="170.225" cy="404.628" r="31.5"/>
<circle class="st0" cx="486.676" cy="404.628" r="31.5"/>
<circle class="st0" cx="328.111" cy="404.628" r="31.5"/>
<circle class="st0" cx="248.915" cy="404.628" r="22.5"/>
<circle class="st0" cx="407.363" cy="404.628" r="22.5"/>
<circle class="st0" cx="566.175" cy="404.628" r="22.5"/>
<g>
	<polygon class="st0" points="235.916,91.256 232.529,97.978 233.397,116.708 235.916,123.134 240.995,126.802 256.234,126.802 
		261.313,123.376 263.856,116.708 265.113,97.978 261.313,91.256 257.294,89.603 240.348,89.603 	"/>
	<path class="st0" d="M240.202,104.309c0-0.913,0.74-1.653,1.653-1.653s1.653,0.74,1.653,1.653"/>
	<circle class="st0" cx="241.855" cy="104.309" r="3.72"/>
	<path class="st0" d="M253.841,104.309c0-0.913,0.74-1.653,1.653-1.653s1.653,0.74,1.653,1.653"/>
	<circle class="st0" cx="255.494" cy="104.309" r="3.72"/>
	<path class="st0" d="M238.557,102.509c-1.022-0.691-2.255-1.094-3.582-1.094c-1.234,0-2.387,0.349-3.364,0.953v8.14h1.377"/>
	<polyline class="st0" points="246.135,113.402 248.699,114.228 251.094,113.402 	"/>
	<path class="st0" d="M248.615,120.015c-2.169,0-3.927-1.758-3.927-3.927"/>
	<path class="st0" d="M258.89,102.509c1.022-0.691,2.255-1.094,3.582-1.094c1.234,0,2.387,0.349,3.364,0.953v8.14h-1.377"/>
	<path class="st0" d="M252.625,92.322h-0.037c-0.694,0.93-2.183,1.572-3.908,1.572s-3.214-0.643-3.908-1.572"/>
	<path class="st0" d="M244.772,102.201h0.037c0.694-0.93,2.183-1.572,3.908-1.572c1.725,0,3.214,0.643,3.908,1.572"/>
</g>
<g>
	<polygon class="st0" points="500.529,190.767 497.429,197.488 499.016,218.511 503.666,226.726 520.645,226.726 525.295,218.753 
		526.882,197.488 523.782,190.767 519.517,188.287 504.794,188.287 	"/>
	<g>
		<line class="st0" x1="509.83" y1="203.446" x2="503.63" y2="203.406"/>
		<path class="st0" d="M513.592,218.699c-1.045,0-1.991-0.463-2.676-1.211s-1.108-1.781-1.108-2.923l0.022-0.054h4.65v-11.066
			l6.201-0.04"/>
	</g>
	<path class="st0" d="M525.641,194.787c-0.705,0.45-1.646,0.726-2.679,0.726c-1.579,0-2.943-0.643-3.578-1.572l-0.034,0
		c-0.636,0.93-1.999,1.572-3.578,1.572c-1.579,0-2.943-0.643-3.578-1.572l-0.034,0c-0.636,0.93-1.999,1.572-3.578,1.572
		c-1.579,0-2.943-0.643-3.578-1.572l-0.034,0c-0.636,0.93-1.999,1.572-3.578,1.572c-1.11,0-2.113-0.317-2.832-0.829"/>
	<polyline class="st0" points="498.561,214.152 497.249,214.152 496.492,203.406 497.805,203.406 	"/>
	<polyline class="st0" points="525.664,214.152 526.976,214.152 527.733,203.406 526.42,203.406 	"/>
</g>
<g>
	<polygon class="st0" points="308.647,197.5 304.064,200.262 307.821,221.285 312.217,226.606 323.751,226.606 328.147,221.527 
		331.904,200.262 326.963,197.5 	"/>
	<path class="st0" d="M321.234,206.109c0.386-0.681,1.426-1.169,2.648-1.169c1.222,0,2.262,0.488,2.648,1.169"/>
	<path class="st0" d="M314.131,206.109c-0.386-0.681-1.426-1.169-2.648-1.169s-2.262,0.488-2.648,1.169"/>
	<polyline class="st0" points="318.397,206.593 318.397,215.686 316.818,216.513 	"/>
	<polyline class="st0" points="329.334,214.562 335.831,209.073 331.697,188.407 304.418,188.407 300.285,209.073 306.508,214.422 	
		"/>
	<g>
		<polyline class="st0" points="305.171,206.18 303.931,206.593 304.758,212.793 		"/>
		<polyline class="st0" points="330.797,206.18 332.037,206.593 331.21,212.793 		"/>
	</g>
	<polygon class="st0" points="317.984,221.573 315.404,220.232 318.058,218.992 320.564,220.232 	"/>
</g>
<g>
	<path class="st0" d="M226.402,317.554c-0.463,0.817-1.709,1.401-3.174,1.401c-1.465,0-2.711-0.585-3.174-1.401L226.402,317.554z"/>
	<polyline class="st0" points="236.184,313.834 228.149,324.341 218.284,324.341 210.273,313.834 210.273,296.475 	"/>
	<polygon class="st0" points="238.387,314.661 236.32,318.381 236.187,308.048 229.294,296.475 207.388,296.475 213.174,287.382 
		235.907,287.382 238.387,290.688 	"/>
	<line class="st0" x1="227.021" y1="302.714" x2="231.567" y2="302.714"/>
	<polyline class="st0" points="221.72,312.801 221.72,302.714 214.948,302.714 	"/>
	<polyline class="st0" points="210.273,310.408 208.628,308.048 208.628,301.848 210.273,301.848 	"/>
</g>
<g>
	<polygon class="st0" points="112.111,190.234 108.725,196.955 111.284,217.978 120.497,227.433 129.123,227.433 138.336,218.22 
		140.895,196.955 137.509,190.234 131.81,187.58 117.857,187.58 	"/>
	<polyline class="st0" points="138.947,212.379 141.033,210.552 142.272,202.086 140.273,202.086 	"/>
	<polyline class="st0" points="110.72,212.339 108.635,210.512 107.395,202.046 109.395,202.046 	"/>
	<line class="st0" x1="127.35" y1="204.566" x2="134.123" y2="204.566"/>
	<polyline class="st0" points="122.27,215.632 122.27,204.566 115.497,204.566 	"/>
	<path class="st0" d="M123.241,219.819c1.141,0,2.175-0.463,2.923-1.211c0.748-0.748,1.211-1.781,1.211-2.923l-0.024-0.054"/>
	<polyline class="st0" points="108.764,197.086 127.364,197.086 133.977,195.433 133.977,197.086 141.003,197.086 	"/>
</g>
<polyline class="st0" points="553.161,96.421 551.254,99.511 554.445,121.361 559.974,126.682 570.942,126.682 575.905,121.603 
	579.095,99.511 577.056,96.566 "/>
<polyline class="st0" points="578.598,106.255 579.838,106.669 579.011,112.869 577.271,113.695 "/>
<polyline class="st0" points="551.751,106.255 550.511,106.669 551.338,112.869 553.078,113.695 "/>
<path class="st0" d="M574.733,89.723c-0.909,0-1.733,0.331-2.39,0.861c-0.656-0.53-1.48-0.861-2.389-0.861s-1.733,0.331-2.39,0.861
	c-0.656-0.53-1.48-0.861-2.39-0.861s-1.733,0.331-2.39,0.861c-0.656-0.53-1.48-0.861-2.39-0.861s-1.733,0.331-2.389,0.861
	c-0.656-0.53-1.48-0.861-2.39-0.861c-2.111,0-3.823,1.712-3.823,3.823c0,2.111,1.712,3.823,3.823,3.823
	c0.909,0,1.733-0.331,2.39-0.861c0.656,0.53,1.48,0.861,2.389,0.861s1.733-0.331,2.39-0.861c0.656,0.53,1.48,0.861,2.39,0.861
	s1.733-0.331,2.39-0.861c0.656,0.53,1.48,0.861,2.39,0.861s1.733-0.331,2.389-0.861c0.656,0.53,1.48,0.861,2.39,0.861
	c2.111,0,3.823-1.712,3.823-3.823C578.556,91.434,576.844,89.723,574.733,89.723z"/>
<path class="st0" d="M562.315,119.903l5.793,0.074"/>
<g>
	<path class="st0" d="M331.415,419.143c-0.463,0.817-1.709,1.401-3.174,1.401c-1.465,0-2.711-0.585-3.174-1.401L331.415,419.143z"/>
	<polyline class="st0" points="314.727,402.331 317.951,420.37 326.48,425.691 329.748,425.691 338.277,420.611 341.495,402.397 	
		"/>
	<g>
		<path class="st0" d="M322.599,404.174c-1.576,0-2.917,0.629-3.414,1.508"/>
		<path class="st0" d="M333.623,404.174c1.576,0,2.917,0.629,3.414,1.508"/>
	</g>
	<polyline class="st0" points="327.701,406.678 329.07,414.771 327.491,414.771 	"/>
	<polygon class="st0" points="344.23,403.404 328.241,398.031 311.991,403.404 316.538,413.324 306.205,406.711 309.511,394.311 
		322.738,383.565 332.657,383.565 346.71,394.311 350.017,406.711 339.684,413.324 	"/>
</g>
<g>
	<polygon class="st0" points="432.998,294.408 432.171,320.051 422.896,328.612 410.964,328.612 401.713,320.051 400.886,294.408 
		401.713,287.657 409.932,283.111 423.953,283.111 432.171,287.657 	"/>
	<polyline class="st0" points="414.678,314.85 417.243,314.85 417.243,305.861 	"/>
	<polyline class="st0" points="422.299,317.898 420.37,319.483 412.274,319.483 	"/>
	<polyline class="st0" points="401.3,314.799 399.583,314.799 399.17,304.899 403.457,304.899 	"/>
	<polyline class="st0" points="432.585,314.799 434.301,314.799 434.715,304.899 430.427,304.899 	"/>
	<polygon class="st0" points="414.307,307.399 404.284,307.399 403.457,304.899 404.284,302.399 415.547,302.399 	"/>
	<polygon class="st0" points="418.337,302.399 429.6,302.399 430.427,304.899 429.6,307.399 419.577,307.399 	"/>
	<g>
		<line class="st0" x1="412.383" y1="304.466" x2="407.61" y2="304.466"/>
		<line class="st0" x1="426.274" y1="304.466" x2="421.502" y2="304.466"/>
	</g>
	<line class="st0" x1="415.547" y1="302.399" x2="418.337" y2="302.399"/>
	<polyline class="st0" points="432.998,298.688 430.427,289.413 422.967,285.384 409.879,289.959 411.172,285.797 403.457,289.959 
		400.886,298.688 	"/>
</g>
<g>
	<path class="st0" d="M486.781,420.133c1.141,0,2.175-0.463,2.923-1.211c0.748-0.748,1.211-1.781,1.211-2.923l-0.024-0.054"/>
	<polygon class="st0" points="501.492,395.035 500.252,417.785 491.803,425.519 481.524,425.519 473.1,417.785 471.86,395.035 
		472.687,388.284 480.905,383.737 492.446,383.737 500.665,388.284 	"/>
	<polyline class="st0" points="472.687,408.935 471.383,408.935 470.557,399.729 471.86,399.729 	"/>
	<polyline class="st0" points="500.665,408.935 501.968,408.935 502.795,399.729 501.492,399.729 	"/>
	<polyline class="st0" points="471.86,399.315 473.412,396.895 475.083,391.039 482.543,389.437 490.809,389.437 498.361,391.039 
		499.985,396.895 501.492,399.315 	"/>
	<line class="st0" x1="490.456" y1="402.052" x2="495.988" y2="402.052"/>
	<line class="st0" x1="493.012" y1="404.059" x2="495.778" y2="404.059"/>
	<line class="st0" x1="477.574" y1="404.059" x2="480.34" y2="404.059"/>
	<polyline class="st0" points="477.363,402.052 484.963,402.052 484.963,413.118 486.676,413.118 	"/>
</g>
<path class="st0" d="M120.869,275.63c-0.505-6.45-0.762-12.97-0.762-19.549c0-2.007,0.024-4.009,0.072-6.005"/>
<path class="st0" d="M152.546,378.555c-7.771-13.59-14.288-27.99-19.395-43.04"/>
<path class="st0" d="M550.995,421.234c-45.232,50.305-110.819,81.94-183.795,81.94c-69.265,0-131.873-28.5-176.738-74.412"/>
<path class="st0" d="M597.147,346.7c-5.332,13.52-11.822,26.456-19.348,38.687"/>
<path class="st0" d="M613.652,238.148c0.425,5.922,0.641,11.903,0.641,17.933c0,2.39-0.034,4.772-0.101,7.146"/>
<path class="st0" d="M582.401,134.57c7.743,13.684,14.219,28.18,19.268,43.328"/>
<path class="st0" d="M183.506,90.816C228.735,40.576,294.278,8.988,367.2,8.988c69.223,0,131.797,28.465,176.657,74.329"/>
<path class="st0" d="M136.884,166.402c5.395-13.845,12.002-27.084,19.691-39.586"/>
<path class="st0" d="M226.505,176.929c2.793-13.755,6.294-26.967,10.43-39.516"/>
<path class="st0" d="M218.784,263.231c-0.041-2.375-0.061-4.759-0.061-7.15c0-6.025,0.13-12,0.384-17.917"/>
<path class="st0" d="M240.112,383.916c-4.127-11.339-7.722-23.275-10.726-35.711"/>
<path class="st0" d="M471.368,432.157c-26.802,43.918-63.583,71.017-104.168,71.017c-42.786,0-81.346-30.118-108.44-78.311"/>
<path class="st0" d="M507.837,335.515c-2.797,13.717-6.297,26.893-10.431,39.409"/>
<path class="st0" d="M515.633,250.077c0.029,1.996,0.043,3.997,0.043,6.004c0,6.467-0.149,12.877-0.443,19.219"/>
<path class="st0" d="M494.624,129.178c4.064,11.278,7.603,23.141,10.561,35.494"/>
<path class="st0" d="M262.971,80.105C289.778,36.128,326.584,8.988,367.2,8.988c43.057,0,81.834,30.501,108.954,79.228"/>
<path class="st0" d="M321.258,164.673c0.948-11.892,2.075-23.329,3.365-34.228"/>
<path class="st0" d="M317.912,275.264c-0.097-6.33-0.147-12.728-0.147-19.183c0-1.919,0.004-3.833,0.013-5.742"/>
<line class="st0" x1="544.459" y1="305.784" x2="567.333" y2="305.784"/>
<line class="st0" x1="459.776" y1="305.784" x2="483.268" y2="305.784"/>
<line class="st0" x1="350.547" y1="305.784" x2="374.108" y2="305.784"/>
<line class="st0" x1="265.721" y1="305.784" x2="289.356" y2="305.784"/>
<line class="st0" x1="156.191" y1="305.784" x2="180.054" y2="305.784"/>
<line class="st0" x1="518.176" y1="404.576" x2="543.675" y2="404.576"/>
<line class="st0" x1="429.863" y1="404.576" x2="455.176" y2="404.576"/>
<line class="st0" x1="359.611" y1="404.576" x2="384.863" y2="404.576"/>
<line class="st0" x1="271.415" y1="404.576" x2="296.611" y2="404.576"/>
<line class="st0" x1="201.725" y1="404.576" x2="226.415" y2="404.576"/>
<line class="st0" x1="554.946" y1="206.993" x2="578.809" y2="206.993"/>
<line class="st0" x1="445.644" y1="206.993" x2="469.279" y2="206.993"/>
<line class="st0" x1="360.892" y1="206.993" x2="384.453" y2="206.993"/>
<line class="st0" x1="251.732" y1="206.993" x2="275.224" y2="206.993"/>
<line class="st0" x1="167.667" y1="206.993" x2="190.541" y2="206.993"/>
<line class="st0" x1="508.984" y1="108.202" x2="533.675" y2="108.202"/>
<line class="st0" x1="438.788" y1="108.202" x2="463.984" y2="108.202"/>
<line class="st0" x1="350.536" y1="108.202" x2="375.788" y2="108.202"/>
<line class="st0" x1="280.223" y1="108.202" x2="305.536" y2="108.202"/>
<line class="st0" x1="191.725" y1="108.202" x2="217.223" y2="108.202"/>
<path class="st0" d="M323.652,373.128c-1.26-11.69-2.338-23.946-3.213-36.671"/>
<path class="st0" d="M402.958,426.694c-9.002,47.123-21.694,76.48-35.759,76.48c-13.145,0-25.091-25.643-33.946-67.467"/>
<path class="st0" d="M413.045,348.695c-0.916,11.322-1.996,22.228-3.224,32.644"/>
<path class="st0" d="M416.505,238.063c0.086,5.95,0.129,11.959,0.129,18.018c0,2.323-0.006,4.638-0.019,6.945"/>
<path class="st0" d="M410.798,139.503c1.28,11.939,2.37,24.465,3.249,37.476"/>
<path class="st0" d="M331.396,85.702c9.005-47.26,21.716-76.714,35.803-76.714c13.23,0,25.246,25.977,34.118,68.284"/>
<g>
	<rect x="584.931" y="190.006" class="st0" width="48.947" height="35"/>
	<line class="st0" x1="601.247" y1="190.006" x2="601.247" y2="225.006"/>
	<line class="st0" x1="617.562" y1="190.006" x2="617.562" y2="225.006"/>
	<line class="st0" x1="584.931" y1="194.729" x2="633.878" y2="194.729"/>
	<circle class="st0" cx="593.089" cy="221.637" r="0.494"/>
	<circle class="st0" cx="609.405" cy="221.637" r="0.494"/>
	<circle class="st0" cx="625.72" cy="221.637" r="0.494"/>
</g>
<g>
	<rect x="295.478" y="288.361" class="st0" width="48.947" height="35"/>
	<line class="st0" x1="311.794" y1="288.361" x2="311.794" y2="323.361"/>
	<line class="st0" x1="328.109" y1="288.361" x2="328.109" y2="323.361"/>
	<line class="st0" x1="295.478" y1="293.084" x2="344.425" y2="293.084"/>
	<circle class="st0" cx="303.636" cy="319.992" r="0.494"/>
	<circle class="st0" cx="319.952" cy="319.992" r="0.494"/>
	<circle class="st0" cx="336.267" cy="319.992" r="0.494"/>
</g>
<g>
	<rect x="309.855" y="95.202" class="st0" width="36.361" height="26"/>
	<line class="st0" x1="321.976" y1="95.202" x2="321.976" y2="121.202"/>
	<line class="st0" x1="334.096" y1="95.202" x2="334.096" y2="121.202"/>
	<line class="st0" x1="309.855" y1="98.71" x2="346.216" y2="98.71"/>
	<circle class="st0" cx="315.915" cy="118.699" r="0.367"/>
	<circle class="st0" cx="328.036" cy="118.699" r="0.367"/>
	<circle class="st0" cx="340.156" cy="118.699" r="0.367"/>
</g>
<g>
	<rect x="143.725" y="388.067" class="st0" width="53" height="33.122"/>
	<polyline class="st0" points="177.281,416.465 177.281,418.582 163.169,418.582 163.169,416.465 	"/>
	<line class="st0" x1="143.725" y1="416.465" x2="196.725" y2="416.465"/>
</g>
<g>
	<g>
		<g>
			<g>
				<rect x="99.595" y="289.638" class="st0" width="52" height="26.406"/>
			</g>
			<line class="st0" x1="99.595" y1="322.085" x2="151.595" y2="322.085"/>
		</g>
	</g>
	<g>
		<line class="st0" x1="123.519" y1="316.044" x2="123.519" y2="322.085"/>
		<line class="st0" x1="127.672" y1="316.044" x2="127.672" y2="322.085"/>
	</g>
</g>
<g>
	<g>
		<g>
			<g>
				<rect x="195.621" y="191.586" class="st0" width="51.03" height="25.913"/>
			</g>
			<line class="st0" x1="195.621" y1="223.427" x2="246.651" y2="223.427"/>
		</g>
	</g>
	<g>
		<line class="st0" x1="219.098" y1="217.499" x2="219.098" y2="223.427"/>
		<line class="st0" x1="223.174" y1="217.499" x2="223.174" y2="223.427"/>
	</g>
</g>
<g>
	<rect x="394.045" y="79.794" class="st0" width="26.486" height="56.818"/>
	<line class="st0" x1="394.045" y1="87.46" x2="420.531" y2="87.46"/>
	<circle class="st0" cx="407.288" cy="131.141" r="0.802"/>
</g>
<g>
	<rect x="547.175" y="392.754" class="st0" width="38" height="23.748"/>
	<polyline class="st0" points="571.234,413.115 571.234,414.633 561.116,414.633 561.116,413.115 	"/>
	<line class="st0" x1="547.175" y1="413.115" x2="585.175" y2="413.115"/>
</g>
<g>
	<rect x="488.364" y="289.925" class="st0" width="51" height="31.872"/>
	<polyline class="st0" points="520.653,317.252 520.653,319.289 507.074,319.289 507.074,317.252 	"/>
	<line class="st0" x1="488.364" y1="317.252" x2="539.364" y2="317.252"/>
</g>
<g>
	<rect x="159.901" y="88.202" class="st0" width="18.647" height="40"/>
	<line class="st0" x1="159.901" y1="93.599" x2="178.548" y2="93.599"/>
	<circle class="st0" cx="169.225" cy="124.352" r="0.565"/>
</g>
<g>
	<rect x="398.04" y="384.628" class="st0" width="18.647" height="40"/>
	<line class="st0" x1="398.04" y1="390.025" x2="416.687" y2="390.025"/>
	<circle class="st0" cx="407.363" cy="420.777" r="0.565"/>
</g>
<g>
	<rect x="390.548" y="189.988" class="st0" width="49" height="35.038"/>
	<line class="st0" x1="406.882" y1="189.988" x2="406.882" y2="225.025"/>
	<line class="st0" x1="423.215" y1="189.988" x2="423.215" y2="225.025"/>
	<line class="st0" x1="390.548" y1="194.715" x2="439.548" y2="194.715"/>
	<circle class="st0" cx="398.715" cy="221.652" r="0.494"/>
	<circle class="st0" cx="415.048" cy="221.652" r="0.494"/>
	<circle class="st0" cx="431.382" cy="221.652" r="0.494"/>
</g>
<g>
	<g>
		<g>
			<g>
				<rect x="468.054" y="96.702" class="st0" width="36.861" height="18.718"/>
			</g>
			<line class="st0" x1="467.146" y1="119.702" x2="505.763" y2="119.809"/>
		</g>
	</g>
	<g>
		<line class="st0" x1="485.012" y1="115.42" x2="485.012" y2="119.702"/>
		<line class="st0" x1="487.956" y1="115.42" x2="487.956" y2="119.702"/>
	</g>
</g>
<g>
	<rect x="230.734" y="391.628" class="st0" width="36.361" height="26"/>
	<line class="st0" x1="242.855" y1="391.628" x2="242.855" y2="417.628"/>
	<line class="st0" x1="254.975" y1="391.628" x2="254.975" y2="417.628"/>
	<line class="st0" x1="230.734" y1="395.136" x2="267.095" y2="395.136"/>
	<circle class="st0" cx="236.795" cy="415.125" r="0.367"/>
	<circle class="st0" cx="248.915" cy="415.125" r="0.367"/>
	<circle class="st0" cx="261.035" cy="415.125" r="0.367"/>
</g>
<polygon class="st0" points="622.135,289.884 623.802,294.81 622.215,318.555 617.565,322.5 602.854,322.5 598.204,318.313 
	596.617,294.81 592.363,287.715 619.285,287.715 "/>
<g>
	<line class="st0" x1="612.535" y1="302.007" x2="617.602" y2="300.874"/>
	<path class="st0" d="M608.773,316.434c1.045,0,1.991-0.463,2.676-1.211c0.685-0.748,1.108-1.781,1.108-2.923l-0.022-0.054h-4.65
		v-10.239l-5.067-1.134"/>
</g>
<polyline class="st0" points="597.749,311.474 596.023,309.821 595.266,300.728 596.993,300.728 "/>
<polyline class="st0" points="622.584,311.474 624.31,309.821 625.066,300.728 623.34,300.728 "/>
<line class="st0" x1="596.617" y1="294.81" x2="623.802" y2="294.81"/>
<line class="st0" x1="556.085" y1="105.689" x2="561.914" y2="105.689"/>
<polyline class="st0" points="573.402,105.689 567.573,105.689 564.115,115.42 566.571,115.42 "/>
</svg>
