<?xml version="1.0" encoding="utf-8"?>
<!-- Generator: Adobe Illustrator 22.1.0, SVG Export Plug-In . SVG Version: 6.00 Build 0)  -->
<svg version="1.1" id="Layer_1" xmlns="http://www.w3.org/2000/svg" xmlns:xlink="http://www.w3.org/1999/xlink" x="0px" y="0px"
	 viewBox="0 0 735 525" style="enable-background:new 0 0 735 525;" xml:space="preserve">
<style type="text/css">
	.st0{fill:none;stroke:#1A25A6;stroke-width:1.0507;stroke-miterlimit:10;}
	.st1{fill:#1A25A6;}
</style>
<g>
	<g>
		<g>
			<rect x="321.971" y="168.278" class="st0" width="90.137" height="56.33"/>
			<polyline class="st0" points="379.039,216.575 379.039,220.175 355.039,220.175 355.039,216.575 			"/>
			<line class="st0" x1="321.971" y1="216.575" x2="412.107" y2="216.575"/>
		</g>
		<g>
			<rect x="344.172" y="14.722" class="st0" width="45" height="96.533"/>
			<line class="st0" x1="344.172" y1="27.747" x2="389.172" y2="27.747"/>
			<circle class="st0" cx="366.672" cy="101.961" r="1.362"/>
		</g>
		<g>
			<g>
				<line class="st0" x1="151.373" y1="237.43" x2="151.373" y2="282.492"/>
				<g>
					<polygon class="st1" points="146.134,280.959 151.373,290.033 156.612,280.959 					"/>
				</g>
			</g>
		</g>
		<g>
			<g>
				<line class="st0" x1="254.525" y1="161.256" x2="308.196" y2="178.389"/>
				<g>
					<polygon class="st1" points="305.142,182.914 315.379,180.682 308.328,172.932 					"/>
				</g>
			</g>
		</g>
		<g>
			<g>
				<line class="st0" x1="308.174" y1="80.995" x2="254.356" y2="97.605"/>
				<g>
					<polygon class="st1" points="305.164,76.44 315.379,78.771 308.254,86.453 					"/>
				</g>
			</g>
		</g>
		<g>
			<g>
				<g>
					<g>
						<rect x="105.939" y="315.682" class="st0" width="90.869" height="46.144"/>
					</g>
					<line class="st0" x1="105.939" y1="372.382" x2="196.808" y2="372.382"/>
				</g>
			</g>
			<g>
				<line class="st0" x1="147.744" y1="361.827" x2="147.744" y2="372.382"/>
				<line class="st0" x1="155.003" y1="361.827" x2="155.003" y2="372.382"/>
			</g>
		</g>
		<g>
			<path class="st0" d="M151.439,163.478c2.485,0,4.735-1.007,6.364-2.636c1.629-1.629,2.636-3.879,2.636-6.364l-0.053-0.118"/>
			<polygon class="st0" points="183.471,108.826 180.771,158.364 162.375,175.205 139.993,175.205 121.649,158.364 118.949,108.826 
				120.749,94.126 138.645,84.226 163.775,84.226 181.671,94.126 			"/>
			<polyline class="st0" points="120.749,139.095 117.911,139.095 116.111,119.048 118.949,119.048 			"/>
			<polyline class="st0" points="181.671,139.095 184.509,139.095 186.309,119.048 183.471,119.048 			"/>
			<polyline class="st0" points="118.949,118.146 122.327,112.876 125.968,100.126 142.21,96.638 160.21,96.638 176.653,100.126 
				180.189,112.876 183.471,118.146 			"/>
			<line class="st0" x1="159.44" y1="124.107" x2="171.488" y2="124.107"/>
			<line class="st0" x1="165.006" y1="128.476" x2="171.03" y2="128.476"/>
			<line class="st0" x1="131.39" y1="128.476" x2="137.414" y2="128.476"/>
			<polyline class="st0" points="130.932,124.107 147.48,124.107 147.48,148.202 151.21,148.202 			"/>
		</g>
		<circle class="st0" cx="151.21" cy="129.716" r="108"/>
		<circle class="st0" cx="367.039" cy="196.443" r="54"/>
		<circle class="st0" cx="366.672" cy="62.988" r="54"/>
		<circle class="st0" cx="151.373" cy="344.032" r="54"/>
		<g>
			<rect x="280.121" y="347.765" class="st0" width="174.951" height="125.1"/>
			<line class="st0" x1="338.438" y1="347.765" x2="338.438" y2="472.865"/>
			<line class="st0" x1="396.755" y1="347.765" x2="396.755" y2="472.865"/>
			<line class="st0" x1="280.121" y1="364.645" x2="455.072" y2="364.645"/>
			<circle class="st0" cx="309.28" cy="460.822" r="1.766"/>
			<circle class="st0" cx="367.597" cy="460.822" r="1.766"/>
			<circle class="st0" cx="425.914" cy="460.822" r="1.766"/>
		</g>
		<g>
			<g>
				<line class="st0" x1="217.003" y1="215.36" x2="297.073" y2="318.797"/>
				<g>
					<polygon class="st1" points="291.992,320.792 301.689,324.76 300.278,314.378 					"/>
				</g>
			</g>
		</g>
		<circle class="st0" cx="367.597" cy="410.315" r="108"/>
	</g>
</g>
</svg>
